<svg xmlns="http://www.w3.org/2000/svg">
    <symbol id="tel" viewBox="0 0 29 29" fill="none">
        <path d="M16.693 1.178a2.183 2.183 0 0 0-.435.073L6.036 4.15A2.184 2.184 0 0 0 4.53 6.833l4.785 16.82c.01.057.027.111.055.163l.688 2.447a2.173 2.173 0 0 0 2.683 1.486l10.222-2.9a2.184 2.184 0 0 0 1.505-2.682l-.671-2.356a.586.586 0 0 0-.109-.381L18.941 2.737a2.163 2.163 0 0 0-1.813-1.559 2.146 2.146 0 0 0-.435 0Zm.09 1.142c.474-.036.916.267 1.052.743l4.622 16.313-12.18 3.443L5.655 6.507a1.008 1.008 0 0 1 .707-1.25l10.222-2.9a.88.88 0 0 1 .2-.037Zm5.366 3.86a.58.58 0 0 0-.454.762l2.9 10.222a.585.585 0 1 0 1.124-.326l-2.9-10.222a.58.58 0 0 0-.562-.435h-.108Zm3.28 1.831a.58.58 0 0 0-.453.761l1.45 5.112a.585.585 0 1 0 1.124-.327l-1.45-5.11a.58.58 0 0 0-.562-.436h-.109Zm-21.641 3.39a.525.525 0 0 0-.054.018.58.58 0 0 0-.453.743l2.9 10.222a.585.585 0 1 0 1.123-.326l-2.9-10.222a.58.58 0 0 0-.562-.435h-.054Zm-1.83 3.28c-.019.005-.037.012-.055.018a.58.58 0 0 0-.453.744l1.45 5.11a.585.585 0 1 0 1.124-.326l-1.45-5.11a.58.58 0 0 0-.562-.436h-.055ZM22.782 20.5l.562 1.994a1.008 1.008 0 0 1-.707 1.25l-10.223 2.9a1.008 1.008 0 0 1-1.25-.706l-.562-1.994 12.18-3.444Zm-5.728 2.411c-.052.005-.11.002-.163.018a.807.807 0 0 0-.543.997c.12.424.555.664.978.544a.788.788 0 0 0 .544-.979.787.787 0 0 0-.816-.58Z" fill="currentColor"/>
    </symbol>
    <symbol id="icon_logo" viewBox="0 0 57 56" fill="none">
        <g clip-path="url(#a)">
            <path d="M42.424 32.217c0-10.178-8.229-18.43-18.38-18.43-10.152 0-18.38 8.252-18.38 18.43 0 10.178 8.228 18.43 18.38 18.43 10.151 0 18.38-8.252 18.38-18.43Z" fill="#89C8FD"/>
            <path d="M24.044 13.788c-.944 0-1.87.07-2.776.208 8.834 1.342 15.605 8.989 15.605 18.22 0 9.233-6.77 16.88-15.605 18.221.905.138 1.832.21 2.776.21 10.151 0 18.38-8.252 18.38-18.43 0-10.178-8.229-18.43-18.38-18.43Z" fill="#60B6FF"/>
            <path d="M21.654 20.95c-2.831 1.774-4.955 4.613-3.362 7.807s5.132 1.952 8.406 1.508c3.274-.443.796 9.67 2.743 12.154 1.947 2.484 7.432-2.484 6.902-5.678-.786-4.728-1.062-6.387 5.309-9.758l.017-.007C39.52 19.705 33.02 14.31 25.195 13.825l-.001.027s-.708 5.323-3.54 7.098ZM35.56 17.854l.003.003-.003-.003ZM37.807 20.004h.001ZM11.833 40.556c-.85-1.296 1.504-4.346 2.035-6.653.531-2.307-2.655-2.13-3.628-2.928-.973-.799-2.3-4.258-3.274-5.057l-.155-.123c-.742 2-1.148 4.163-1.148 6.422a18.417 18.417 0 0 0 7.491 14.847l.006-.386s.708-3.016-1.327-6.122Z" fill="#BAEB6C"/>
            <path d="m36.343 36.741-.012-.068a18.32 18.32 0 0 1-1.527 4.045c1.046-1.234 1.744-2.738 1.539-3.977Z" fill="#BAEB6C"/>
            <path d="m25.195 13.825-.001.027s-.06.445-.211 1.119c6.445 2.44 11.164 8.406 11.814 15.553.812-1.11 2.297-2.188 4.855-3.541l.017-.007c-2.147-7.271-8.648-12.666-16.474-13.151Z" fill="#96D629"/>
            <path d="M24.018 56c-1.301 0-2.613-.107-3.923-.324A23.613 23.613 0 0 1 4.647 46.07a23.608 23.608 0 0 1-4.13-17.715.833.833 0 0 1 1.643.271A21.956 21.956 0 0 0 6.001 45.1a21.959 21.959 0 0 0 14.366 8.934c12.025 1.986 23.423-6.181 25.409-18.205a21.956 21.956 0 0 0-3.841-16.474A21.958 21.958 0 0 0 27.57 10.42a.833.833 0 1 1 .27-1.642 23.612 23.612 0 0 1 15.449 9.606 23.61 23.61 0 0 1 4.13 17.715 23.61 23.61 0 0 1-9.607 15.447C33.73 54.47 28.942 56 24.019 56Z" fill="#09A66D"/>
            <path d="M18.964 20.113C10.075 18.604 4.56 7.413 4.56 7.413S13.46-1.333 22.347.175c8.888 1.507 14.402 12.699 14.402 12.699s-8.897 8.746-17.785 7.239Z" fill="#49CB5C"/>
            <path d="M22.347.175c-1.697-.288-3.394-.202-5.03.126 8.517 1.913 13.77 12.573 13.77 12.573s-5.824 5.724-12.755 7.112c.209.047.419.09.632.127 8.888 1.507 17.785-7.24 17.785-7.24S31.235 1.684 22.347.176Z" fill="#07B128"/>
            <path d="m36.247 11.944-8.692-1.466L19.435.023c-.647.038-1.29.121-1.922.24l7.615 9.805-6.554-1.105-5.593-7.236c-.525.237-1.035.488-1.527.748l4.699 6.08-10.838-1.83c-.487.426-.754.688-.754.688s.179.362.521.962l10.78 1.819-5.979 4.622c.385.396.79.788 1.211 1.168l7.002-5.413 6.939 1.17-9.437 7.302c.586.273 1.191.51 1.815.7l9.856-7.624 8.698 1.467c.504-.44.782-.712.782-.712s-.172-.349-.502-.93Z" fill="#09A66D"/>
            <path d="M42.795 9.25C45.179 3.607 53.44 1.708 53.44 1.708s4.396 7.248 2.011 12.89C53.07 20.24 44.806 22.14 44.806 22.14s-4.395-7.248-2.011-12.89Z" fill="#49CB5C"/>
            <path d="M53.441 1.708s-1.878.432-4.103 1.496c1.142 2.417 2.95 7.323 1.23 11.394-1.247 2.952-4.103 4.879-6.543 6.046.44.933.782 1.496.782 1.496s8.262-1.9 10.646-7.542c2.384-5.642-2.012-12.89-2.012-12.89Z" fill="#07B128"/>
            <path d="m56.128 9.945-6.353 2.665 4.171-9.973c-.298-.59-.505-.93-.505-.93s-.393.091-1.033.291l-4.31 10.306-2.674-6.577c-.453.4-.88.833-1.267 1.304l3.029 7.453-2.846 6.803c.278.542.466.853.466.853s.428-.098 1.115-.316l2.938-7.024 7.267-3.048c.048-.604.045-1.21.002-1.807Z" fill="#09A66D"/>
        </g>
            <defs>
            <clipPath id="a"><path fill="#fff" transform="translate(.194)" d="M0 0h56v56H0z"/></clipPath>
            </defs>
        </symbol>
    <symbol id="icon_search" viewBox="0 0 21 21" fill="none">
        <circle cx="9.961" cy="9.767" r="8.989" stroke="#222" stroke-width="1.5" stroke-linecap="round" stroke-linejoin="round"/>
        <path d="M16.213 16.485 19.737 20" stroke="#222" stroke-width="1.5" stroke-linecap="round" stroke-linejoin="round"/>
    </symbol>
    <symbol id="icon_buy" viewBox="0 0 21 21" fill="none">
        <path clip-rule="evenodd" d="M7.617 20.82a.766.766 0 0 1 0 1.53.764.764 0 1 1 0-1.53ZM18.869 20.82a.766.766 0 1 1-.001 1.532.766.766 0 0 1 .001-1.532Z" stroke="#222" stroke-width="1.5" stroke-linecap="round" stroke-linejoin="round"/>
        <path d="m2.944 4.25 2.08.36.963 11.473a1.802 1.802 0 0 0 1.797 1.653h10.912c.896 0 1.656-.658 1.785-1.546l.95-6.558a1.34 1.34 0 0 0-1.328-1.533H5.358M14.32 11.797h2.773" stroke="#222" stroke-width="1.5" stroke-linecap="round" stroke-linejoin="round"/><circle cx="15.843" cy="3.778" r="3.027" fill="#09A66D"/>
    </symbol>
    <symbol id="facebook" viewBox="0 0 25 25" fill="none">
        <g clip-path="url(#a)">
            <path d="M13.6 9.04v-3a1.5 1.5 0 0 1 1.5-1.5h1.5V.79h-3a4.5 4.5 0 0 0-4.5 4.5v3.75h-3v3.75h3v12h4.5v-12h3l1.5-3.75h-4.5Z" fill="#222"/>
        </g><defs><clipPath id="a">
            <path fill="#fff" transform="translate(.1 .79)" d="M0 0h24v24H0z"/>
            </clipPath>
        </defs>
    </symbol>
    <symbol  id="twitter" viewBox="0 0 25 25" fill="none">
        <g clip-path="url(#a)">
                <path d="M24.1 5.348c-.892.392-1.843.651-2.834.777a4.893 4.893 0 0 0 2.164-2.72 9.833 9.833 0 0 1-3.12 1.192A4.919 4.919 0 0 0 11.8 7.962c0 .39.033.764.114 1.121-4.09-.2-7.71-2.16-10.141-5.146a4.954 4.954 0 0 0-.674 2.487c0 1.704.878 3.214 2.186 4.089a4.858 4.858 0 0 1-2.223-.606v.054a4.943 4.943 0 0 0 3.942 4.834c-.4.11-.837.162-1.29.162a4.35 4.35 0 0 1-.932-.084c.638 1.949 2.447 3.381 4.598 3.428a9.886 9.886 0 0 1-6.1 2.098c-.404 0-.791-.018-1.178-.067a13.852 13.852 0 0 0 7.548 2.208c9.054 0 14.004-7.5 14.004-14.001 0-.218-.008-.428-.018-.636A9.816 9.816 0 0 0 24.1 5.348Z" fill="#222"/>
        </g>
        <defs>
            <clipPath id="a">
                <path fill="#fff" transform="translate(.1 .79)" d="M0 0h24v24H0z"/>
            </clipPath>
        </defs>
    </symbol>
    <symbol id="instagram" viewBox="0 0 25 25" fill="none">
        <g clip-path="url(#a)" fill="#222">
            <path d="M24.077 7.846c-.056-1.276-.262-2.152-.558-2.912a5.857 5.857 0 0 0-1.387-2.128 5.905 5.905 0 0 0-2.124-1.384c-.764-.295-1.637-.501-2.912-.557C15.812.804 15.404.79 12.146.79c-3.26 0-3.667.014-4.947.07-1.275.056-2.152.263-2.911.558a5.856 5.856 0 0 0-2.13 1.388A5.909 5.909 0 0 0 .777 4.929C.48 5.694.274 6.566.218 7.841.157 9.126.143 9.533.143 12.79c0 3.26.014 3.667.07 4.947.056 1.275.263 2.152.558 2.912a5.918 5.918 0 0 0 1.388 2.128c.6.61 1.327 1.083 2.124 1.383.764.296 1.636.502 2.911.558 1.28.057 1.688.07 4.947.07 3.258 0 3.666-.013 4.946-.07 1.275-.056 2.152-.262 2.911-.558a6.139 6.139 0 0 0 3.512-3.511c.295-.764.502-1.637.558-2.912.056-1.28.07-1.688.07-4.946 0-3.259-.005-3.666-.06-4.946Zm-2.161 9.798c-.052 1.173-.249 1.805-.413 2.227a3.98 3.98 0 0 1-2.278 2.279c-.422.164-1.06.361-2.227.413-1.266.056-1.646.07-4.848.07s-3.587-.014-4.848-.07c-1.172-.052-1.805-.249-2.227-.413a3.693 3.693 0 0 1-1.378-.895 3.731 3.731 0 0 1-.896-1.379c-.164-.422-.36-1.06-.412-2.227-.057-1.266-.07-1.646-.07-4.848s.013-3.586.07-4.848c.051-1.172.248-1.805.412-2.227.192-.52.497-.993.9-1.378a3.725 3.725 0 0 1 1.379-.895c.422-.164 1.06-.361 2.227-.413 1.266-.056 1.645-.07 4.848-.07 3.207 0 3.586.014 4.848.07 1.172.052 1.805.249 2.227.413.52.192.993.496 1.378.895.398.39.703.858.895 1.378.164.422.361 1.06.413 2.227.056 1.266.07 1.646.07 4.848s-.014 3.577-.07 4.843Z"/>
            <path d="M12.145 6.626a6.167 6.167 0 0 0-6.165 6.166 6.167 6.167 0 0 0 6.165 6.165 6.167 6.167 0 0 0 6.166-6.165 6.167 6.167 0 0 0-6.166-6.166Zm0 10.165a4 4 0 1 1 .002-8 4 4 0 0 1-.002 8ZM19.994 6.383a1.44 1.44 0 1 1-2.88 0 1.44 1.44 0 0 1 2.88 0Z"/>
        </g>
        <defs>
            <clipPath id="a">
                <path fill="#fff" transform="translate(.1 .79)" d="M0 0h24v24H0z"/>
            </clipPath>
        </defs>
    </symbol>
    <symbol id="arrow" viewBox="0 0 33 16" fill="none">
        <path d="M32.707 8.676a1 1 0 0 0 0-1.414L26.343.898a1 1 0 1 0-1.414 1.414l5.657 5.657-5.657 5.657a1 1 0 0 0 1.414 1.414l6.364-6.364ZM0 8.969h32v-2H0v2Z" fill="#fff"/>
    </symbol>
    <symbol id="person" viewBox="0 0 32 32" fill="none">
        <g clip-path="url(#a)" fill="#09A66D">
            <path d="M16.002 0c-4.571 0-8.308 3.737-8.308 8.308 0 4.572 3.737 8.309 8.308 8.309 4.572 0 8.309-3.737 8.309-8.309C24.31 3.737 20.574 0 16.002 0ZM30.26 23.256a7.745 7.745 0 0 0-.834-1.523c-1.669-2.468-4.245-4.1-7.147-4.5-.363-.036-.762.037-1.052.255a8.74 8.74 0 0 1-5.225 1.705 8.74 8.74 0 0 1-5.224-1.706 1.361 1.361 0 0 0-1.052-.253 10.252 10.252 0 0 0-7.148 4.498 8.928 8.928 0 0 0-.834 1.524c-.109.218-.073.472.036.69.29.508.653 1.016.98 1.45.508.69 1.052 1.307 1.669 1.887.507.508 1.088.98 1.669 1.452A16.437 16.437 0 0 0 15.966 32c3.556 0 7.002-1.125 9.868-3.265a15.96 15.96 0 0 0 1.67-1.451c.58-.581 1.16-1.198 1.668-1.887.363-.472.69-.943.98-1.451.181-.218.217-.472.109-.69Z"/>
        </g>
        <defs>
            <clipPath id="a">
                <path fill="#fff" d="M0 0h32v32H0z"/>
            </clipPath>
        </defs>
    </symbol>
    <symbol id="star" viewBox="0 0 32 32" fill="none">
        <path d="M31.954 12.329a.937.937 0 0 0-.757-.639l-9.92-1.441-4.436-8.99a.937.937 0 0 0-1.682 0l-4.436 8.99-9.92 1.441a.937.937 0 0 0-.52 1.6l7.178 6.997-1.694 9.88a.938.938 0 0 0 1.36.988L16 26.49l8.873 4.665a.937.937 0 0 0 1.36-.988l-1.695-9.88 7.179-6.997a.937.937 0 0 0 .237-.961Z" fill="#FED42D"/>
    </symbol>
    <symbol id="harvest" viewBox="0 0 32 32" fill="none">
        <path d="M22.472 10h1.45c1.207 0 2.217-.86 2.45-2h-1.45c-1.207 0-2.217.86-2.45 2ZM11 5.5c.05 0 .098.006.147.008l.351-3.51c.002-.295-.201-.498-.45-.498h-.095a.453.453 0 0 0-.453.452l.354 3.556c.049-.002.097-.008.146-.008ZM7 16c0-.17.018-.337.045-.5H6v.342c.375.179.713.42 1 .713V16ZM6.595 3.778l1.71 2.518c.135-.086.273-.166.416-.24L7.692 3.228a.548.548 0 0 0-.765-.311l-.125.062a.548.548 0 0 0-.207.8ZM8.691 14.5h5.569l.656-3.148c.056-.268.084-.543.084-.816C15 8.294 13.206 6.5 11 6.5s-4 1.794-4 4c0 .31.029.584.084.852l.578 2.773A2.993 2.993 0 0 1 10 13v1c-.502 0-.957.193-1.309.5Zm3.809-6h1v1h-1v-1Zm0 2h1v1h-1v-1Zm0 2h1v1h-1v-1ZM5.5 18.5h1.45a2.504 2.504 0 0 0-2.45-2H3.05c.233 1.14 1.243 2 2.45 2ZM15.405 3.777a.548.548 0 0 0-.209-.798l-.124-.063a.546.546 0 0 0-.736.245.613.613 0 0 0-.029.066L13.28 6.055c.143.074.281.154.415.24l1.711-2.518ZM14.492 24.5H28.5v-3H13.826c.442.928.666 1.949.666 3Zm12.008-2h1v1h-1v-1ZM13.232 28.5H27c.827 0 1.5-.673 1.5-1.5v-1.5H14.428a6.95 6.95 0 0 1-1.196 3Zm13.268-2h1v1h-1v-1ZM8.071 15.5A1.97 1.97 0 0 0 8 16v.5h22.5v-1H8.071ZM8 18.933c.1-.024.201-.05.293-.089a3.883 3.883 0 0 1 4.413.977c.194.215.367.444.531.678H28.5v-3H8v1.434Zm18.5-.433h1v1h-1v-1Z" fill="#09A66D"/>
        <path d="M11.963 20.49a2.918 2.918 0 0 0-3.277-.727 2.94 2.94 0 0 1-.686.193v.942c.496-.185.968-.575 1.147-.753l.707.708C9.736 20.971 8.674 22 7.5 22c-1.173 0-2.237-1.03-2.354-1.147l.707-.708c.179.178.65.567 1.147.753V19.5H5.5c-.17 0-.335-.016-.497-.04-.702.05-1.442.442-1.989 1.055A5.99 5.99 0 0 0 1.5 24.5c0 1.646.654 3.182 1.84 4.324a5.96 5.96 0 0 0 4.399 1.671c3.09-.12 5.619-2.633 5.756-5.723a5.976 5.976 0 0 0-1.532-4.282ZM7.5 29.5c-2.757 0-5-2.243-5-5h1c0 2.205 1.795 4 4 4v1ZM26.385 14.5a5.97 5.97 0 0 0-1.344-2.51 2.92 2.92 0 0 0-3.277-.726 2.85 2.85 0 0 1-.264.095V7c0-.827.673-1.5 1.5-1.5h.5v-1H23A2.503 2.503 0 0 0 20.5 7v4.359a2.85 2.85 0 0 1-.264-.095 2.92 2.92 0 0 0-3.277.726 5.966 5.966 0 0 0-1.345 2.51h10.771Zm-7.632-2.431c.008.004.765.431 2.247.431 1.482 0 2.239-.427 2.246-.431l.51.86c-.038.023-.972.571-2.756.571-1.785 0-2.719-.548-2.758-.572l.511-.859Z" fill="#09A66D"/>
    </symbol>
    <symbol id="man" viewBox="0 0 41 41" fill="none">
        <g clip-path="url(#a)">
            <path d="M38.347 13.235h-6.783c-1.17 0-2.123.953-2.123 2.124v7.808h-2.537c.14-.513.193-1.118.159-1.821-.055-2.974-.595-5.48-1.604-7.448-.784-1.53-1.698-2.446-2.483-2.994.921-.947 1.454-2.294 1.454-3.847 0-2.796-2.23-5.07-4.971-5.07s-4.971 2.274-4.971 5.07c0 .323.262.586.586.586h.398a4.069 4.069 0 0 0 3.213 4.66c-.195.725-.292 1.579-.292 2.55l-1.461 1.256-3.556.288-4.102-1.356c-.376-.125-.802-.267-1.172 0-.364.263-.364.723-.364.874v3.05c0 .324.262.586.586.586h.697l-1.07 3.697a.586.586 0 0 0 1.126.326l1.165-4.023h1.665c-2.072 6.318-.89 10.535.928 14.803H11.78L7.394 29.45l.928-3.204a.586.586 0 1 0-1.126-.326l-.887 3.065a5.894 5.894 0 0 0-5.824 4.569.586.586 0 0 0 .44.702l.831.191a4.492 4.492 0 0 0 4.471 4.916c.832 0 1.649-.233 2.371-.686a4.454 4.454 0 0 0 1.822-2.236l.656.15c.196.046.381.07.567-.03a.673.673 0 0 0 .33-.45c.041-.192.072-.387.094-.584h12.255c.392 2.437 2.465 4.273 4.94 4.273 2.476 0 4.55-1.836 4.941-4.273h.448l.109.001c.167 0 .41-.018.608-.22a.75.75 0 0 0 .207-.57 6.645 6.645 0 0 0-.24-1.587c.467-2.834.018-4.56-.648-5.91.421-.276.7-.751.7-1.291v-1.61h2.96c1.17 0 2.123-.953 2.123-2.125V15.36a2.126 2.126 0 0 0-2.123-2.124ZM7.977 37.683c-.751.47-1.639.62-2.5.421a3.32 3.32 0 0 1-2.567-3.391l6.356 1.462a3.293 3.293 0 0 1-1.29 1.508Zm2.93-2.333-9.114-2.098a4.719 4.719 0 0 1 4.666-3.091l4.465 4.992a4.73 4.73 0 0 1-.016.197Zm8.851-10.21c-.17.448-.17 1-.17 1.766v2.212h-2.145v-3.034c0-3.43 1.871-4.04 2.711-4.142H25.9c-.023.779-.199 1.332-.532 1.683-.389.41-1.054.609-2.033.61l-2.103.002c-.75 0-1.246.304-1.473.902Zm-.17 5.15v1.398H15.41c.047-.434.182-.77.404-1.002.33-.345.795-.397 1.043-.397h2.731Zm6.285-9.52h-5.329a21.913 21.913 0 0 1-.561-2.168l1.62-1.051c.884-.575 1.344-1.386 1.262-2.227a2.071 2.071 0 0 0-1.29-1.696c-.65-.26-1.35-.178-1.967.217.05-.56.146-1.06.283-1.486.25-.025.498-.074.741-.146A4.857 4.857 0 0 0 22 11.671c1.128.674 3.61 2.861 3.873 9.1Zm-10.17-14.3c.276-1.871 1.855-3.31 3.756-3.31 2.095 0 3.799 1.748 3.799 3.897 0 1.748-.838 3.157-2.19 3.777V7.75c0-.534-.204-1.19-1.177-1.278a.576.576 0 0 0-.053-.002h-4.135Zm.885 1.848c0-.231.026-.457.078-.675h3.143a.908.908 0 0 1 .081.012.705.705 0 0 1 .006.096v3.427c-.14.02-.28.031-.42.031h-.004a2.892 2.892 0 0 1-2.884-2.891Zm-.76 9.056 1.388-.112a.586.586 0 0 0 .335-.14l2.505-2.154c.242-.21.5-.316.753-.316.112 0 .222.021.33.064.31.124.53.407.56.722.038.396-.222.797-.734 1.13l-2.791 1.811h-2.346v-1.005Zm-2.476.2 1.304-.105v.91h-1.515c-.197 0-.245-.163-.25-.3-.004-.078.004-.467.461-.505Zm-1.387-.404a1.714 1.714 0 0 0-.216 1.204v.005H8.91v-2.224l3.057 1.01c0 .002 0 .004-.002.005Zm1.179 2.381h5.203a.585.585 0 0 0 .32-.094l.264-.173c.128.564.273 1.113.431 1.631-1.194.353-3.091 1.493-3.091 5.169v3.092a2.446 2.446 0 0 0-1.305.7c-.428.45-.673 1.057-.732 1.812h-1.182c-1.191-3.432-1.644-7.085.092-12.137Zm.966 14.802a47.193 47.193 0 0 1-.622-1.493h6.084c.788 0 1.188-.359 1.188-1.067v-4.3h4.625a.586.586 0 0 0 0-1.173h-4.62c.007-.332.028-.605.09-.765.029-.079.054-.146.376-.146l2.104-.002c1.317-.002 2.26-.32 2.881-.975.03-.03.056-.062.084-.094H34.215v1.61c0 .202-.17.372-.37.372h-5.833a.586.586 0 1 0 0 1.172H33.5c.464.86.88 1.93.855 3.62a6.337 6.337 0 0 0-5.165-2.646 6.31 6.31 0 0 0-4.52 1.89 6.454 6.454 0 0 0-1.842 3.998l-8.718-.002Zm15.153 4.275c-1.832 0-3.377-1.32-3.75-3.102h7.5c-.374 1.782-1.919 3.102-3.75 3.102Zm4.416-4.273H24.005c.288-2.65 2.503-4.717 5.185-4.717 2.354 0 4.331 1.552 4.986 3.725a5.4 5.4 0 0 1 .2.991h-.697Zm5.619-12.14a.953.953 0 0 1-.951.952h-7.734V20.14h8.685v2.073Zm0-3.246h-8.685v-1.246h8.685v1.246Zm0-2.418h-8.685v-1.192c0-.525.426-.952.95-.952h6.784c.524 0 .95.427.95.952v1.192Z" fill="#09A66D"/>
        </g>
        <defs>
            <clipPath id="a">
                <path fill="#fff" transform="translate(.47 .893)" d="M0 0h40v40H0z"/>
            </clipPath>
        </defs>
    </symbol>
    <symbol fill="none" id="list"><g clip-path="url(#a)"><path d="M15.156 28.715h10.39a.586.586 0 0 0 0-1.172h-10.39a.586.586 0 1 0 0 1.172Zm1.836-13.442h6.956c.53 0 .99-.341 1.145-.849l1.46-4.81a1.185 1.185 0 0 0-.184-1.06 1.185 1.185 0 0 0-.96-.484h-.52l-1.063-2.655a1.592 1.592 0 0 0-1.485-1.006h-3.742c-.658 0-1.241.395-1.486 1.006L16.051 8.07h-.52c-.382 0-.732.176-.96.484a1.185 1.185 0 0 0-.184 1.06l1.46 4.81a1.19 1.19 0 0 0 1.145.849Zm-1.48-6.021c.018-.024 3.187-.002 3.21-.01a.586.586 0 1 0 0-1.172h-1.409l.889-2.22a.426.426 0 0 1 .397-.27h3.742c.176 0 .332.107.397.27l.888 2.22h-2.17a.586.586 0 0 0 0 1.172c.02 0 3.957-.01 3.972.01.017.023-1.457 4.807-1.457 4.832 0 .052-7 .01-7.003 0-.007-.025-1.473-4.809-1.456-4.832Zm-.356 25.308a.586.586 0 1 0 0 1.172h10.39a.586.586 0 0 0 0-1.172h-10.39Zm15.664-1.757a.586.586 0 0 0-.586-.586H15.156a.586.586 0 0 0 0 1.172h15.078a.586.586 0 0 0 .586-.586Zm2.93-6.26a.586.586 0 0 0 .586-.587V3.823a2.933 2.933 0 0 0-2.93-2.93H9.534a2.933 2.933 0 0 0-2.93 2.93v34.14a2.933 2.933 0 0 0 2.93 2.93h21.872a2.933 2.933 0 0 0 2.93-2.93v-9.272a.586.586 0 1 0-1.172 0v9.273a1.76 1.76 0 0 1-1.758 1.758H9.534a1.76 1.76 0 0 1-1.758-1.758V3.824c0-.97.788-1.759 1.758-1.759h21.872c.97 0 1.758.789 1.758 1.758v22.133c0 .324.262.586.586.586Zm-20.91 2.621c-.29.004-.592.007-.87.008.198-.267.447-.612.758-1.056.272-.39.465-.742.515-1.108.008-.06.024-.168.024-.225 0-.873-.71-1.584-1.583-1.584-.755 0-1.408.538-1.554 1.278a.586.586 0 0 0 1.15.225.411.411 0 0 1 .814.052c.015.21-.092.355-.326.69-.616.88-.983 1.36-1.18 1.619-.345.45-.51 1.038.087 1.237.077.026 1.624.043 2.179.036a.586.586 0 1 0-.015-1.172ZM30.233 25.2H15.156a.586.586 0 0 0 0 1.172h15.078a.586.586 0 1 0 0-1.172Zm-18.458 7.018c-.755 0-1.408.537-1.554 1.277a.586.586 0 0 0 1.15.225.412.412 0 1 1 .404.492.586.586 0 0 0 0 1.172.412.412 0 1 1-.411.412.586.586 0 0 0-1.172 0c0 .86.714 1.583 1.583 1.583.873 0 1.583-.71 1.583-1.583 0-.378-.133-.725-.355-.998.222-.272.355-.62.355-.997 0-.873-.71-1.583-1.583-1.583Zm0-8.935a.586.586 0 0 0 .586-.586V18.8a.586.586 0 0 0-.586-.586h-.833a.586.586 0 0 0 0 1.172h.247v3.311c0 .324.262.586.586.586Zm3.38-1.554h10.39a.586.586 0 1 0 0-1.171h-10.39a.586.586 0 1 0 0 1.171Zm15.078-3.515H15.156a.586.586 0 0 0 0 1.172h15.078a.586.586 0 0 0 0-1.172Z" fill="#09A66D"/></g><defs><clipPath id="a"><path fill="#fff" transform="translate(.47 .893)" d="M0 0h40v40H0z"/></clipPath></defs></symbol>
    <symbol id="clock" fill="none"><g clip-path="url(#a)" fill="#09A66D"><path d="M3.507 12.55h6.18a.586.586 0 0 0 0-1.171h-6.18a.586.586 0 1 0 0 1.171ZM9.475 15.371H7.033a.586.586 0 1 0 0 1.172h2.442a.586.586 0 1 0 0-1.172ZM1.056 19.435h5.977a.586.586 0 1 0 0-1.172H1.056a.586.586 0 1 0 0 1.172ZM10.272 29.822a.586.586 0 0 0-.586-.586h-6.18a.586.586 0 0 0 0 1.172h6.18a.586.586 0 0 0 .586-.586ZM9.475 25.244H7.033a.586.586 0 1 0 0 1.172h2.442a.586.586 0 1 0 0-1.172ZM7.62 22.938a.586.586 0 0 0-.587-.586H1.056a.586.586 0 0 0 0 1.172h5.977a.586.586 0 0 0 .586-.586ZM25.433 13.849a.586.586 0 0 0 .586-.586v-.894a.586.586 0 1 0-1.172 0v.894c0 .324.262.586.586.586ZM31.875 14.451a.586.586 0 0 0-.828 0l-.633.633a.586.586 0 0 0 .83.828l.631-.632a.586.586 0 0 0 0-.829ZM33.063 20.308a.586.586 0 1 0 0 1.171h.894a.586.586 0 1 0 0-1.171h-.894ZM31.243 25.875a.586.586 0 0 0-.829.828l.633.633a.586.586 0 0 0 .828-.829l-.632-.632ZM24.847 28.524v.894a.586.586 0 0 0 1.172 0v-.894a.586.586 0 1 0-1.172 0ZM19.623 25.875l-.632.632a.586.586 0 0 0 .828.829l.633-.633a.586.586 0 0 0-.829-.828ZM16.908 20.308a.586.586 0 1 0 0 1.171h.894a.586.586 0 0 0 0-1.171h-.894ZM20.452 15.084l-.633-.633a.586.586 0 0 0-.828.829l.632.632a.586.586 0 1 0 .829-.829ZM28.584 20.893a.586.586 0 0 0-.586-.585h-1.98v-4.35a.586.586 0 1 0-1.171 0v4.935c0 .324.262.586.586.586h2.565a.586.586 0 0 0 .586-.585Z"/><path d="M36.543 20.797a.586.586 0 0 0 .55-.62c-.373-6.15-5.495-10.966-11.66-10.966-6.442 0-11.682 5.24-11.682 11.682s5.24 11.683 11.682 11.683c5.77 0 10.695-4.229 11.552-9.934a.586.586 0 0 0-1.16-.174c-.769 5.126-5.195 8.936-10.392 8.936-5.796 0-10.51-4.715-10.51-10.51 0-5.796 4.714-10.51 10.51-10.51 5.547 0 10.154 4.332 10.49 9.863.02.323.297.569.62.55Z"/><path d="M25.433 5.857c-2.06 0-4.08.427-5.939 1.227H9.156a.586.586 0 1 0 0 1.172h8.134a15.02 15.02 0 0 0-3.005 2.547.586.586 0 0 0 .869.786 13.895 13.895 0 0 1 10.28-4.56c7.644 0 13.864 6.22 13.864 13.864 0 7.645-6.22 13.865-13.865 13.865-7.645 0-13.865-6.22-13.865-13.865 0-2.677.765-5.275 2.212-7.514a.586.586 0 1 0-.984-.636 14.982 14.982 0 0 0-2.4 8.15c0 5.295 2.75 9.958 6.898 12.638H9.156a.586.586 0 1 0 0 1.172h10.33a14.95 14.95 0 0 0 5.947 1.227c8.292 0 15.037-6.745 15.037-15.037 0-8.29-6.745-15.036-15.037-15.036Z"/></g><defs><clipPath id="a"><path fill="#fff" transform="translate(.47 .893)" d="M0 0h40v40H0z"/></clipPath></defs></symbol>
    <symbol id="arrow_2" width="15" height="34" fill="none" ><path d="M6.73 33.6a1 1 0 0 0 1.415 0l6.364-6.363a1 1 0 0 0-1.415-1.415L7.438 31.48 1.78 25.822a1 1 0 1 0-1.415 1.415L6.73 33.6ZM6.437.893v32h2v-32h-2Z" fill="#09A66D"/></symbol>
    <symbol id="right" width="33" height="33" fill="none" ><path d="m14.837 16.576 6.6 6.6-1.885 1.886-8.486-8.486 8.486-8.485 1.885 1.885-6.6 6.6Z" fill="#CCC"/></symbol>
    <symbol id="left" width="33" height="33" fill="none"><path d="m18.358 16.576-6.6-6.6 1.886-1.885 8.485 8.485-8.485 8.485-1.886-1.885 6.6-6.6Z" fill="#fff"/></symbol>
</svg>