<svg xmlns="http://www.w3.org/2000/svg">
    <symbol id="tel" viewBox="0 0 29 29" fill="none">
        <path d="M16.693 1.178a2.183 2.183 0 0 0-.435.073L6.036 4.15A2.184 2.184 0 0 0 4.53 6.833l4.785 16.82c.01.057.027.111.055.163l.688 2.447a2.173 2.173 0 0 0 2.683 1.486l10.222-2.9a2.184 2.184 0 0 0 1.505-2.682l-.671-2.356a.586.586 0 0 0-.109-.381L18.941 2.737a2.163 2.163 0 0 0-1.813-1.559 2.146 2.146 0 0 0-.435 0Zm.09 1.142c.474-.036.916.267 1.052.743l4.622 16.313-12.18 3.443L5.655 6.507a1.008 1.008 0 0 1 .707-1.25l10.222-2.9a.88.88 0 0 1 .2-.037Zm5.366 3.86a.58.58 0 0 0-.454.762l2.9 10.222a.585.585 0 1 0 1.124-.326l-2.9-10.222a.58.58 0 0 0-.562-.435h-.108Zm3.28 1.831a.58.58 0 0 0-.453.761l1.45 5.112a.585.585 0 1 0 1.124-.327l-1.45-5.11a.58.58 0 0 0-.562-.436h-.109Zm-21.641 3.39a.525.525 0 0 0-.054.018.58.58 0 0 0-.453.743l2.9 10.222a.585.585 0 1 0 1.123-.326l-2.9-10.222a.58.58 0 0 0-.562-.435h-.054Zm-1.83 3.28c-.019.005-.037.012-.055.018a.58.58 0 0 0-.453.744l1.45 5.11a.585.585 0 1 0 1.124-.326l-1.45-5.11a.58.58 0 0 0-.562-.436h-.055ZM22.782 20.5l.562 1.994a1.008 1.008 0 0 1-.707 1.25l-10.223 2.9a1.008 1.008 0 0 1-1.25-.706l-.562-1.994 12.18-3.444Zm-5.728 2.411c-.052.005-.11.002-.163.018a.807.807 0 0 0-.543.997c.12.424.555.664.978.544a.788.788 0 0 0 .544-.979.787.787 0 0 0-.816-.58Z" fill="currentColor"/>
    </symbol>
    <symbol id="icon_logo" viewBox="0 0 57 56" fill="none">
        <g clip-path="url(#a)">
            <path d="M42.424 32.217c0-10.178-8.229-18.43-18.38-18.43-10.152 0-18.38 8.252-18.38 18.43 0 10.178 8.228 18.43 18.38 18.43 10.151 0 18.38-8.252 18.38-18.43Z" fill="#89C8FD"/>
            <path d="M24.044 13.788c-.944 0-1.87.07-2.776.208 8.834 1.342 15.605 8.989 15.605 18.22 0 9.233-6.77 16.88-15.605 18.221.905.138 1.832.21 2.776.21 10.151 0 18.38-8.252 18.38-18.43 0-10.178-8.229-18.43-18.38-18.43Z" fill="#60B6FF"/>
            <path d="M21.654 20.95c-2.831 1.774-4.955 4.613-3.362 7.807s5.132 1.952 8.406 1.508c3.274-.443.796 9.67 2.743 12.154 1.947 2.484 7.432-2.484 6.902-5.678-.786-4.728-1.062-6.387 5.309-9.758l.017-.007C39.52 19.705 33.02 14.31 25.195 13.825l-.001.027s-.708 5.323-3.54 7.098ZM35.56 17.854l.003.003-.003-.003ZM37.807 20.004h.001ZM11.833 40.556c-.85-1.296 1.504-4.346 2.035-6.653.531-2.307-2.655-2.13-3.628-2.928-.973-.799-2.3-4.258-3.274-5.057l-.155-.123c-.742 2-1.148 4.163-1.148 6.422a18.417 18.417 0 0 0 7.491 14.847l.006-.386s.708-3.016-1.327-6.122Z" fill="#BAEB6C"/>
            <path d="m36.343 36.741-.012-.068a18.32 18.32 0 0 1-1.527 4.045c1.046-1.234 1.744-2.738 1.539-3.977Z" fill="#BAEB6C"/>
            <path d="m25.195 13.825-.001.027s-.06.445-.211 1.119c6.445 2.44 11.164 8.406 11.814 15.553.812-1.11 2.297-2.188 4.855-3.541l.017-.007c-2.147-7.271-8.648-12.666-16.474-13.151Z" fill="#96D629"/>
            <path d="M24.018 56c-1.301 0-2.613-.107-3.923-.324A23.613 23.613 0 0 1 4.647 46.07a23.608 23.608 0 0 1-4.13-17.715.833.833 0 0 1 1.643.271A21.956 21.956 0 0 0 6.001 45.1a21.959 21.959 0 0 0 14.366 8.934c12.025 1.986 23.423-6.181 25.409-18.205a21.956 21.956 0 0 0-3.841-16.474A21.958 21.958 0 0 0 27.57 10.42a.833.833 0 1 1 .27-1.642 23.612 23.612 0 0 1 15.449 9.606 23.61 23.61 0 0 1 4.13 17.715 23.61 23.61 0 0 1-9.607 15.447C33.73 54.47 28.942 56 24.019 56Z" fill="#09A66D"/>
            <path d="M18.964 20.113C10.075 18.604 4.56 7.413 4.56 7.413S13.46-1.333 22.347.175c8.888 1.507 14.402 12.699 14.402 12.699s-8.897 8.746-17.785 7.239Z" fill="#49CB5C"/>
            <path d="M22.347.175c-1.697-.288-3.394-.202-5.03.126 8.517 1.913 13.77 12.573 13.77 12.573s-5.824 5.724-12.755 7.112c.209.047.419.09.632.127 8.888 1.507 17.785-7.24 17.785-7.24S31.235 1.684 22.347.176Z" fill="#07B128"/>
            <path d="m36.247 11.944-8.692-1.466L19.435.023c-.647.038-1.29.121-1.922.24l7.615 9.805-6.554-1.105-5.593-7.236c-.525.237-1.035.488-1.527.748l4.699 6.08-10.838-1.83c-.487.426-.754.688-.754.688s.179.362.521.962l10.78 1.819-5.979 4.622c.385.396.79.788 1.211 1.168l7.002-5.413 6.939 1.17-9.437 7.302c.586.273 1.191.51 1.815.7l9.856-7.624 8.698 1.467c.504-.44.782-.712.782-.712s-.172-.349-.502-.93Z" fill="#09A66D"/>
            <path d="M42.795 9.25C45.179 3.607 53.44 1.708 53.44 1.708s4.396 7.248 2.011 12.89C53.07 20.24 44.806 22.14 44.806 22.14s-4.395-7.248-2.011-12.89Z" fill="#49CB5C"/>
            <path d="M53.441 1.708s-1.878.432-4.103 1.496c1.142 2.417 2.95 7.323 1.23 11.394-1.247 2.952-4.103 4.879-6.543 6.046.44.933.782 1.496.782 1.496s8.262-1.9 10.646-7.542c2.384-5.642-2.012-12.89-2.012-12.89Z" fill="#07B128"/>
            <path d="m56.128 9.945-6.353 2.665 4.171-9.973c-.298-.59-.505-.93-.505-.93s-.393.091-1.033.291l-4.31 10.306-2.674-6.577c-.453.4-.88.833-1.267 1.304l3.029 7.453-2.846 6.803c.278.542.466.853.466.853s.428-.098 1.115-.316l2.938-7.024 7.267-3.048c.048-.604.045-1.21.002-1.807Z" fill="#09A66D"/>
        </g>
            <defs>
            <clipPath id="a"><path fill="#fff" transform="translate(.194)" d="M0 0h56v56H0z"/></clipPath>
            </defs>
        </symbol>
    <symbol id="icon_search" viewBox="0 0 21 21" fill="none">
        <circle cx="9.961" cy="9.767" r="8.989" stroke="#222" stroke-width="1.5" stroke-linecap="round" stroke-linejoin="round"/>
        <path d="M16.213 16.485 19.737 20" stroke="#222" stroke-width="1.5" stroke-linecap="round" stroke-linejoin="round"/>
    </symbol>
    <symbol id="icon_buy" viewBox="0 0 21 21" fill="none">
        <path clip-rule="evenodd" d="M7.617 20.82a.766.766 0 0 1 0 1.53.764.764 0 1 1 0-1.53ZM18.869 20.82a.766.766 0 1 1-.001 1.532.766.766 0 0 1 .001-1.532Z" stroke="#222" stroke-width="1.5" stroke-linecap="round" stroke-linejoin="round"/>
        <path d="m2.944 4.25 2.08.36.963 11.473a1.802 1.802 0 0 0 1.797 1.653h10.912c.896 0 1.656-.658 1.785-1.546l.95-6.558a1.34 1.34 0 0 0-1.328-1.533H5.358M14.32 11.797h2.773" stroke="#222" stroke-width="1.5" stroke-linecap="round" stroke-linejoin="round"/><circle cx="15.843" cy="3.778" r="3.027" fill="#09A66D"/>
    </symbol>
    <symbol id="facebook" viewBox="0 0 25 25" fill="none">
        <g clip-path="url(#a)">
            <path d="M13.6 9.04v-3a1.5 1.5 0 0 1 1.5-1.5h1.5V.79h-3a4.5 4.5 0 0 0-4.5 4.5v3.75h-3v3.75h3v12h4.5v-12h3l1.5-3.75h-4.5Z" fill="#222"/>
        </g><defs><clipPath id="a">
            <path fill="#fff" transform="translate(.1 .79)" d="M0 0h24v24H0z"/>
            </clipPath>
        </defs>
    </symbol>
    <symbol  id="twitter" viewBox="0 0 25 25" fill="none">
        <g clip-path="url(#a)">
                <path d="M24.1 5.348c-.892.392-1.843.651-2.834.777a4.893 4.893 0 0 0 2.164-2.72 9.833 9.833 0 0 1-3.12 1.192A4.919 4.919 0 0 0 11.8 7.962c0 .39.033.764.114 1.121-4.09-.2-7.71-2.16-10.141-5.146a4.954 4.954 0 0 0-.674 2.487c0 1.704.878 3.214 2.186 4.089a4.858 4.858 0 0 1-2.223-.606v.054a4.943 4.943 0 0 0 3.942 4.834c-.4.11-.837.162-1.29.162a4.35 4.35 0 0 1-.932-.084c.638 1.949 2.447 3.381 4.598 3.428a9.886 9.886 0 0 1-6.1 2.098c-.404 0-.791-.018-1.178-.067a13.852 13.852 0 0 0 7.548 2.208c9.054 0 14.004-7.5 14.004-14.001 0-.218-.008-.428-.018-.636A9.816 9.816 0 0 0 24.1 5.348Z" fill="#222"/>
        </g>
        <defs>
            <clipPath id="a">
                <path fill="#fff" transform="translate(.1 .79)" d="M0 0h24v24H0z"/>
            </clipPath>
        </defs>
    </symbol>
    <symbol id="instagram" viewBox="0 0 25 25" fill="none">
        <g clip-path="url(#a)" fill="#222">
            <path d="M24.077 7.846c-.056-1.276-.262-2.152-.558-2.912a5.857 5.857 0 0 0-1.387-2.128 5.905 5.905 0 0 0-2.124-1.384c-.764-.295-1.637-.501-2.912-.557C15.812.804 15.404.79 12.146.79c-3.26 0-3.667.014-4.947.07-1.275.056-2.152.263-2.911.558a5.856 5.856 0 0 0-2.13 1.388A5.909 5.909 0 0 0 .777 4.929C.48 5.694.274 6.566.218 7.841.157 9.126.143 9.533.143 12.79c0 3.26.014 3.667.07 4.947.056 1.275.263 2.152.558 2.912a5.918 5.918 0 0 0 1.388 2.128c.6.61 1.327 1.083 2.124 1.383.764.296 1.636.502 2.911.558 1.28.057 1.688.07 4.947.07 3.258 0 3.666-.013 4.946-.07 1.275-.056 2.152-.262 2.911-.558a6.139 6.139 0 0 0 3.512-3.511c.295-.764.502-1.637.558-2.912.056-1.28.07-1.688.07-4.946 0-3.259-.005-3.666-.06-4.946Zm-2.161 9.798c-.052 1.173-.249 1.805-.413 2.227a3.98 3.98 0 0 1-2.278 2.279c-.422.164-1.06.361-2.227.413-1.266.056-1.646.07-4.848.07s-3.587-.014-4.848-.07c-1.172-.052-1.805-.249-2.227-.413a3.693 3.693 0 0 1-1.378-.895 3.731 3.731 0 0 1-.896-1.379c-.164-.422-.36-1.06-.412-2.227-.057-1.266-.07-1.646-.07-4.848s.013-3.586.07-4.848c.051-1.172.248-1.805.412-2.227.192-.52.497-.993.9-1.378a3.725 3.725 0 0 1 1.379-.895c.422-.164 1.06-.361 2.227-.413 1.266-.056 1.645-.07 4.848-.07 3.207 0 3.586.014 4.848.07 1.172.052 1.805.249 2.227.413.52.192.993.496 1.378.895.398.39.703.858.895 1.378.164.422.361 1.06.413 2.227.056 1.266.07 1.646.07 4.848s-.014 3.577-.07 4.843Z"/>
            <path d="M12.145 6.626a6.167 6.167 0 0 0-6.165 6.166 6.167 6.167 0 0 0 6.165 6.165 6.167 6.167 0 0 0 6.166-6.165 6.167 6.167 0 0 0-6.166-6.166Zm0 10.165a4 4 0 1 1 .002-8 4 4 0 0 1-.002 8ZM19.994 6.383a1.44 1.44 0 1 1-2.88 0 1.44 1.44 0 0 1 2.88 0Z"/>
        </g>
        <defs>
            <clipPath id="a">
                <path fill="#fff" transform="translate(.1 .79)" d="M0 0h24v24H0z"/>
            </clipPath>
        </defs>
    </symbol>
    <symbol id="arrow" viewBox="0 0 33 16" fill="none">
        <path d="M32.707 8.676a1 1 0 0 0 0-1.414L26.343.898a1 1 0 1 0-1.414 1.414l5.657 5.657-5.657 5.657a1 1 0 0 0 1.414 1.414l6.364-6.364ZM0 8.969h32v-2H0v2Z" fill="#fff"/>
    </symbol>
</svg>